HIERARCHY
ROOT Hips
{
	OFFSET 0.00000 0.00000 0.00000
	CHANNELS 6 Xposition Yposition Zposition Zrotation Yrotation Xrotation 
	JOINT LHipJoint
	{
		OFFSET 0 0 0
		CHANNELS 3 Zrotation Yrotation Xrotation
		JOINT LeftHip
		{
			OFFSET 1.26600 -1.82114 0.91038
			CHANNELS 3 Zrotation Yrotation Xrotation
			JOINT LeftKnee
			{
				OFFSET 2.50076 -6.87080 0.00000
				CHANNELS 3 Zrotation Yrotation Xrotation
				JOINT LeftAnkle
				{
					OFFSET 2.57364 -7.07102 0.00000
					CHANNELS 3 Zrotation Yrotation Xrotation
					JOINT LeftToe
					{
						OFFSET 0.13572 -0.37290 1.97004
						CHANNELS 3 Zrotation Yrotation Xrotation
						End Site
						{
							OFFSET 0.00000 -0.00000 1.01383
						}
					}
				}
			}
		}
	}
	JOINT RHipJoint
	{
		OFFSET 0 0 0
		CHANNELS 3 Zrotation Yrotation Xrotation
		JOINT RightHip
		{
			OFFSET -1.20803 -1.82114 0.91038
			CHANNELS 3 Zrotation Yrotation Xrotation
			JOINT RightKnee
			{
				OFFSET -2.54916 -7.00377 0.00000
				CHANNELS 3 Zrotation Yrotation Xrotation
				JOINT RightAnkle
				{
					OFFSET -2.56374 -7.04382 0.00000
					CHANNELS 3 Zrotation Yrotation Xrotation
					JOINT RightToe
					{
						OFFSET -0.23520 -0.64621 2.09921
						CHANNELS 3 Zrotation Yrotation Xrotation
						End Site
						{
							OFFSET -0.00000 -0.00000 1.10065
						}
					}
				}
			}
		}
	}
	JOINT lowerback
	{
		OFFSET 0 0 0
		CHANNELS 3 Zrotation Yrotation Xrotation
		JOINT Chest
		{
			OFFSET 0.05492 2.10797 -0.12074
			CHANNELS 3 Zrotation Yrotation Xrotation
			JOINT Chest2
			{
				OFFSET 0.04577 2.11592 -0.04483
				CHANNELS 3 Zrotation Yrotation Xrotation
				JOINT lowerneck
				{
					OFFSET 0 0 0
					CHANNELS 3 Zrotation Yrotation Xrotation
					JOINT Neck
					{
						OFFSET -0.10759 1.80167 0.15770
						CHANNELS 3 Zrotation Yrotation Xrotation
						JOINT Head
						{
							OFFSET 0.09237 1.77509 -0.40848
							CHANNELS 3 Zrotation Yrotation Xrotation
							End Site
							{
								OFFSET 0.03805 1.84093 -0.15754
							}
						}
					}
				}
				JOINT LeftCollar
				{
					OFFSET 0 0 0
					CHANNELS 3 Zrotation Yrotation Xrotation
					JOINT LeftShoulder
					{
						OFFSET 3.42372 1.09575 -0.28209
CHANNELS 3 Zrotation Xrotation Yrotation
						JOINT LeftElbow
						{
OFFSET 0 -4.956810 0.000000
CHANNELS 3 Zrotation Xrotation Yrotation
							JOINT LeftWrist
							{
OFFSET 0 -3.409150 0.000000
CHANNELS 3 Zrotation Xrotation Yrotation
								JOINT lhand
								{
									OFFSET 0 0 0
CHANNELS 3 Zrotation Xrotation Yrotation
									JOINT LFingers
									{
OFFSET 0 -0.616400 0.000000
CHANNELS 3 Zrotation Xrotation Yrotation
										End Site
										{
OFFSET 0 -0.496960 0.000000
										}
									}
								}
								JOINT LThumb
								{
OFFSET 0 0.000000 0.000000
CHANNELS 3 Zrotation Xrotation Yrotation
									End Site
									{
OFFSET 0 -0.504550 0.504550
									}
								}
							}
						}
					}
				}
				JOINT RightCollar
				{
					OFFSET 0 0 0
					CHANNELS 3 Zrotation Yrotation Xrotation
					JOINT RightShoulder
					{
						OFFSET -3.24731 1.15872 -0.32221
CHANNELS 3 Zrotation Xrotation Yrotation
						JOINT RightElbow
						{
OFFSET 0 -5.352000 0.000000
CHANNELS 3 Zrotation Xrotation Yrotation
							JOINT RightWrist
							{
OFFSET 0 -3.437210 -0.000000
CHANNELS 3 Zrotation Xrotation Yrotation
								JOINT rhand
								{
									OFFSET 0 0 0
CHANNELS 3 Zrotation Xrotation Yrotation
									JOINT RFingers
									{
OFFSET 0 -0.720090 0.000000
CHANNELS 3 Zrotation Xrotation Yrotation
										End Site
										{
OFFSET 0 -0.580560 0.000000
										}
									}
								}
								JOINT RThumb
								{
OFFSET 0 0.000000 0.000000
CHANNELS 3 Zrotation Xrotation Yrotation
									End Site
									{
OFFSET 0 -0.589420 0.589420
									}
								}
							}
						}
					}
				}
			}
		}
	}
}
MOTION
Frames: 8
Frame Time: 0.008333333333333333
16.973060 20.666325 -11.877744 311.367885 86.038670 670.278521 0.000000 0.000000 0.000000 -17.449994 -3.101417 -15.245866 2.417217 9.685849 27.965275 -0.732436 -16.385403 -1.114530 1.242950 7.067631 19.916348 0.000000 0.000000 0.000000 26.133519 -12.650863 -17.222783 -3.701136 -11.751526 34.858691 -1.041495 -7.864577 -23.639711 -1.059195 -6.541130 18.363687 -0.206663 0.148800 5.831198 3.007195 0.305028 1.289576 3.193275 0.180011 -1.958815 -9.325834 -4.131311 -14.159121 5.266144 -4.111701 34.393624 3.224919 -1.897139 14.558142 0.000000 0.000000 0.000000 3.550765 -5.140441 -27.108836 22.493680 -33.530497 6.856579 22.837482 -1.464770 -19.932346 0.000000 0.000000 0.000000 -7.125000 0.000000 0.000000 -5.652897 51.372456 0.889932 0.000000 0.000000 0.000000 -3.952132 3.618637 15.357053 -20.502426 -31.242902 -5.789702 -21.394674 -19.063786 -12.764718 0.000000 0.000000 0.000000 7.125000 0.000000 0.000000 4.070137 16.327283 2.768964
17.175997 20.637446 -11.802182 334.423735 83.183904 693.549097 0.000000 0.000000 0.000000 -17.090062 -2.533373 -14.880435 2.593964 10.006806 28.998642 -0.345607 -14.247352 -5.245751 0.927097 6.131840 17.168079 0.000000 0.000000 0.000000 26.305728 -14.698009 -15.612385 -3.047384 -10.770964 31.511629 -1.226265 -4.329726 -22.891875 -0.780394 -5.632906 15.724861 -0.000274 0.857536 5.108818 2.843046 1.241736 1.070459 2.843828 0.642944 -1.826073 -9.480361 -4.013245 -14.006260 5.365159 -3.928099 34.783085 3.340449 -1.826003 14.693581 0.000000 0.000000 0.000000 2.607790 -4.487767 -26.137615 22.104606 -33.095025 6.642894 22.607962 -1.742283 -19.604670 0.000000 0.000000 0.000000 -7.125000 0.000000 0.000000 -5.787900 50.987916 0.856394 0.000000 0.000000 0.000000 -3.933965 3.730136 16.358611 -20.530182 -31.275627 -5.804224 -21.306843 -18.439960 -12.804586 0.000000 0.000000 0.000000 7.125000 0.000000 0.000000 4.132756 16.293160 2.814246
17.305613 20.628564 -11.730252 333.860432 77.852206 693.229636 0.000000 0.000000 0.000000 -14.016724 -3.067591 -14.547941 2.976996 10.657538 31.133550 0.171787 -9.819348 -9.495088 0.528052 4.656059 12.930242 0.000000 0.000000 0.000000 28.886340 -11.430126 -11.809994 -2.484746 -9.809971 28.363768 -1.185785 -2.896077 -21.799484 -0.554742 -4.770196 13.254362 2.881893 1.530552 5.092411 3.112132 2.312443 1.021274 1.432545 1.168610 -1.819110 -9.684653 -4.210048 -13.916605 6.182065 -4.491750 34.978964 3.634248 -1.995519 14.850692 0.000000 0.000000 0.000000 1.737673 -3.171596 -24.445107 21.008251 -31.837763 6.054409 21.483434 -1.221221 -19.207131 0.000000 0.000000 0.000000 -7.125000 0.000000 0.000000 -6.783384 50.382991 0.903534 0.000000 0.000000 0.000000 -3.979517 3.224051 16.968893 -20.287830 -30.987546 -5.678809 -21.324095 -18.122122 -12.606996 0.000000 0.000000 0.000000 7.125000 0.000000 0.000000 4.113002 16.501677 2.782536
17.376085 20.619069 -11.633863 334.858337 72.233507 694.744471 0.000000 0.000000 0.000000 -11.034466 -4.375998 -15.252112 3.685340 11.728919 34.780487 0.487538 -5.141593 -12.440314 0.236858 3.128598 8.637359 0.000000 0.000000 0.000000 31.415568 -9.293729 -9.789920 -2.167692 -9.206687 26.444111 -1.092491 -0.949262 -20.117124 -0.504157 -4.548489 12.625610 4.164620 1.472389 5.282505 3.799027 2.348605 1.057549 1.418238 1.189066 -1.867249 -9.429233 -4.182478 -13.870021 6.446835 -4.697693 35.191835 3.670820 -2.037822 14.958576 0.000000 0.000000 0.000000 0.641577 -1.210804 -21.397472 19.201212 -29.667837 5.130119 21.673655 2.017490 -20.098221 0.000000 0.000000 0.000000 -7.125000 0.000000 0.000000 -6.859823 51.345180 1.076369 0.000000 0.000000 0.000000 -4.134638 2.336032 19.051020 -20.566156 -31.318412 -5.822766 -21.747576 -18.617283 -11.781297 0.000000 0.000000 0.000000 7.125000 0.000000 0.000000 3.788035 17.340722 2.492282
17.446722 20.607332 -11.572181 336.431609 66.508627 695.909352 0.000000 0.000000 0.000000 -8.039377 -6.026562 -16.265467 5.082202 13.475183 41.175422 0.443918 -2.023775 -12.047364 0.033751 -1.185504 -3.259400 0.000000 0.000000 0.000000 32.939959 -9.325529 -6.966371 -1.768937 -8.367066 23.834696 -0.912716 3.129351 -17.271739 -0.884997 -5.992699 16.764496 5.811408 1.530219 6.100652 4.130348 2.569578 1.777365 0.818768 1.315307 -1.522685 -9.996007 -4.947206 -13.996075 7.566468 -6.149346 35.761748 4.025641 -2.602745 15.506885 0.000000 0.000000 0.000000 -0.072798 -0.960037 -19.833278 15.864753 -25.335979 3.588448 21.315337 5.459274 -19.781309 0.000000 0.000000 0.000000 -7.125000 0.000000 0.000000 -7.118153 50.953750 1.048815 0.000000 0.000000 0.000000 -4.543379 1.114266 20.275204 -21.108336 -31.954451 -6.107183 -21.250214 -20.607940 -12.579801 0.000000 0.000000 0.000000 7.125000 0.000000 0.000000 4.163099 16.537636 2.813678
17.500633 20.628959 -11.562900 340.164923 60.056779 699.468067 0.000000 0.000000 0.000000 -5.508905 -8.684113 -17.616353 6.679569 15.055714 47.651245 0.192844 -1.611380 -7.886487 0.020218 -0.896574 -2.464447 0.000000 0.000000 0.000000 33.382199 -7.990618 -4.023662 -1.381627 -7.437122 21.017339 -0.662573 6.141621 -14.522382 -1.013709 -6.403713 17.961055 6.077169 1.527045 7.273063 4.570879 2.689511 2.101004 1.086338 1.375865 -1.846688 -12.155781 -5.584318 -13.377399 8.787913 -7.045316 37.072933 4.875422 -3.154361 16.336847 0.000000 0.000000 0.000000 -1.983393 -0.329388 -17.387986 12.471446 -20.507780 2.264901 22.739659 9.627418 -22.100786 0.000000 0.000000 0.000000 -7.125000 0.000000 0.000000 -6.427431 53.630297 1.366664 0.000000 0.000000 0.000000 -4.864885 -0.136238 19.228734 -20.506848 -31.247928 -5.792059 -22.001554 -19.603812 -13.070868 0.000000 0.000000 0.000000 7.125000 0.000000 0.000000 3.664143 15.940706 2.522030
17.621669 20.653640 -11.603437 342.482654 52.513227 702.539609 0.000000 0.000000 0.000000 -2.520008 -11.536721 -17.901284 7.388947 15.650834 50.330548 -0.072154 -5.777783 -1.395520 0.150217 2.497596 6.882922 0.000000 0.000000 0.000000 34.036888 -4.979214 -2.187060 -1.238493 -7.056927 19.884148 -0.434039 9.189973 -12.510946 -0.935214 -6.159962 17.249297 6.691261 1.574838 7.888819 4.438422 2.860374 1.841050 0.569637 1.434354 -2.417939 -10.735154 -5.683490 -12.948341 8.171117 -7.571255 38.266672 4.305304 -3.288625 16.822359 0.000000 0.000000 0.000000 -2.874135 0.908446 -11.133125 9.984565 -16.715368 1.470463 20.010612 15.642362 -21.694715 0.000000 0.000000 0.000000 -7.125000 0.000000 0.000000 -9.053760 52.703116 1.727648 0.000000 0.000000 0.000000 -4.708630 0.304004 20.007767 -20.386113 -31.104725 -5.729493 -20.979282 -19.802295 -12.706783 0.000000 0.000000 0.000000 7.125000 0.000000 0.000000 4.355613 16.428742 2.954416
17.818416 20.651607 -11.656568 343.962501 44.147958 705.121414 0.000000 0.000000 0.000000 -0.236981 -14.016627 -15.951715 6.781497 15.145030 48.042896 -0.866337 -17.408753 -0.329828 0.004057 0.402442 1.105803 0.000000 0.000000 0.000000 34.505610 -1.528211 -0.817353 -1.215704 -6.993950 19.697528 -0.076513 12.888960 -10.004301 -0.901380 -6.050113 16.930046 7.632502 1.812101 8.169487 4.724242 3.311977 1.515118 0.288808 1.631196 -2.861585 -11.629842 -5.956469 -12.689085 8.340459 -7.968148 38.485860 4.472345 -3.616717 17.009436 0.000000 0.000000 0.000000 -4.527729 2.852611 -6.985061 9.343612 -15.706315 1.291526 20.958545 18.101398 -22.550972 0.000000 0.000000 0.000000 -7.125000 0.000000 0.000000 -8.412099 53.757819 1.821317 0.000000 0.000000 0.000000 -5.351855 0.701953 19.180957 -19.200454 -29.666952 -5.129675 -21.391846 -17.872457 -12.467933 0.000000 0.000000 0.000000 7.125000 0.000000 0.000000 4.060879 16.642824 2.734593
